<?xml version="1.0" standalone="no"?><!DOCTYPE svg PUBLIC "-//W3C//DTD SVG 1.1//EN" "http://www.w3.org/Graphics/SVG/1.1/DTD/svg11.dtd"><svg t="1625317414719" class="icon" viewBox="0 0 1024 1024" version="1.1" xmlns="http://www.w3.org/2000/svg" p-id="889" xmlns:xlink="http://www.w3.org/1999/xlink" width="200" height="200"><defs><style type="text/css"></style></defs><path d="M896 468.114286a43.885714 43.885714 0 0 1 43.300571 36.790857L939.885714 512v384a43.885714 43.885714 0 0 1-36.790857 43.300571l-7.094857 0.585143H128a43.885714 43.885714 0 0 1-43.300571-36.790857l-0.585143-7.094857V512.146286a43.885714 43.885714 0 0 1 87.186285-7.094857l0.585143 7.094857v339.968h680.228572V512a43.885714 43.885714 0 0 1 36.790857-43.300571l7.094857-0.585143z" fill="#2A8EFF" p-id="890"></path><path d="M288.914286 459.629714a43.885714 43.885714 0 0 1 56.027428-5.12l6.070857 5.12L512 620.617143l160.914286-160.914286a43.885714 43.885714 0 0 1 56.027428-5.12l6.070857 5.12a43.885714 43.885714 0 0 1 5.12 55.881143l-5.12 6.144-192 192a43.885714 43.885714 0 0 1-55.954285 5.046857l-6.070857-5.12L288.914286 521.801143a43.885714 43.885714 0 0 1 0-62.098286z" fill="#2A8EFF" p-id="891"></path><path d="M511.853714 84.114286a43.885714 43.885714 0 0 1 43.300572 36.790857l0.585143 7.094857v554.642286a43.885714 43.885714 0 0 1-87.259429 7.168l-0.512-7.168V128a43.885714 43.885714 0 0 1 43.885714-43.885714z" fill="#2A8EFF" p-id="892"></path></svg>